<svg width="206" height="152" fill="none" xmlns="http://www.w3.org/2000/svg"><g filter="url(#a)"><path d="M63.373 59.611C53.226 59.611 45 68.018 45 78.39h36.745c0-10.37-8.225-18.778-18.372-18.778Z" fill="#EEF3FF"/></g><g filter="url(#b)"><path d="M135.422 76c-14.126 0-25.577 11.64-25.577 26H161c0-14.36-11.451-26-25.578-26Z" fill="#E1EAFF"/></g><g filter="url(#c)"><path d="M96.876 56c-21.488 0-38.907 17.46-38.907 39h77.814c0-21.54-17.42-39-38.907-39Z" fill="#D5E0FB"/></g><g filter="url(#d)"><path d="M145.5 40c-8.56 0-15.5 7.163-15.5 16h31c0-8.837-6.94-16-15.5-16Z" fill="#ECF1FC"/></g><defs><filter id="a" x="0" y="19.611" width="126.745" height="108.778" filterUnits="userSpaceOnUse" color-interpolation-filters="sRGB"><feFlood flood-opacity="0" result="BackgroundImageFix"/><feColorMatrix in="SourceAlpha" values="0 0 0 0 0 0 0 0 0 0 0 0 0 0 0 0 0 0 127 0" result="hardAlpha"/><feOffset dy="5"/><feGaussianBlur stdDeviation="22.5"/><feColorMatrix values="0 0 0 0 0.593724 0 0 0 0 0.684469 0 0 0 0 0.888646 0 0 0 0.1 0"/><feBlend in2="BackgroundImageFix" result="effect1_dropShadow"/><feBlend in="SourceGraphic" in2="effect1_dropShadow" result="shape"/></filter><filter id="b" x="64.845" y="36" width="141.155" height="116" filterUnits="userSpaceOnUse" color-interpolation-filters="sRGB"><feFlood flood-opacity="0" result="BackgroundImageFix"/><feColorMatrix in="SourceAlpha" values="0 0 0 0 0 0 0 0 0 0 0 0 0 0 0 0 0 0 127 0" result="hardAlpha"/><feOffset dy="5"/><feGaussianBlur stdDeviation="22.5"/><feColorMatrix values="0 0 0 0 0.593724 0 0 0 0 0.684469 0 0 0 0 0.888646 0 0 0 0.1 0"/><feBlend in2="BackgroundImageFix" result="effect1_dropShadow"/><feBlend in="SourceGraphic" in2="effect1_dropShadow" result="shape"/></filter><filter id="c" x="12.969" y="16" width="167.814" height="129" filterUnits="userSpaceOnUse" color-interpolation-filters="sRGB"><feFlood flood-opacity="0" result="BackgroundImageFix"/><feColorMatrix in="SourceAlpha" values="0 0 0 0 0 0 0 0 0 0 0 0 0 0 0 0 0 0 127 0" result="hardAlpha"/><feOffset dy="5"/><feGaussianBlur stdDeviation="22.5"/><feColorMatrix values="0 0 0 0 0.593724 0 0 0 0 0.684469 0 0 0 0 0.888646 0 0 0 0.1 0"/><feBlend in2="BackgroundImageFix" result="effect1_dropShadow"/><feBlend in="SourceGraphic" in2="effect1_dropShadow" result="shape"/></filter><filter id="d" x="85" y="0" width="121" height="106" filterUnits="userSpaceOnUse" color-interpolation-filters="sRGB"><feFlood flood-opacity="0" result="BackgroundImageFix"/><feColorMatrix in="SourceAlpha" values="0 0 0 0 0 0 0 0 0 0 0 0 0 0 0 0 0 0 127 0" result="hardAlpha"/><feOffset dy="5"/><feGaussianBlur stdDeviation="22.5"/><feColorMatrix values="0 0 0 0 0.593724 0 0 0 0 0.684469 0 0 0 0 0.888646 0 0 0 0.1 0"/><feBlend in2="BackgroundImageFix" result="effect1_dropShadow"/><feBlend in="SourceGraphic" in2="effect1_dropShadow" result="shape"/></filter></defs></svg>